M48
INCH,TZ
T1C0.0157
T2C0.0315
T3C0.0354
T4C0.0394
T5C0.0512
T6C0.0598
T7C0.0787
T8C0.0984
%
G90
G05
T1
X21146Y-46602
X21146Y-46839
X21146Y-47075
X21150Y-46126
X21150Y-46362
X21378Y-46606
X21378Y-46843
X21378Y-47079
X21382Y-46130
X21382Y-46366
X22014Y-45827
X22764Y-45823
X23488Y-29382
X23488Y-29618
X23488Y-29854
X23492Y-28906
X23492Y-29142
X23514Y-45823
X23720Y-29386
X23720Y-29622
X23720Y-29858
X23724Y-28909
X23724Y-29146
X24264Y-45827
X25008Y-45768
X25764Y-45756
X26783Y-46382
X26787Y-45720
X28039Y-46075
X28039Y-46461
X28047Y-46862
X28102Y-44083
X28390Y-31295
X28413Y-44539
X28496Y-34291
X28504Y-31713
X28512Y-47362
X28571Y-33220
X28596Y-40500
X28596Y-41500
X28787Y-47835
X29657Y-45205
X30142Y-33720
X30146Y-33488
X30378Y-33720
X30382Y-33488
X30614Y-33720
X30618Y-33488
X30642Y-38213
X30854Y-33724
X30858Y-33492
X31091Y-33724
X31094Y-33492
X31102Y-31705
X31161Y-32114
X31311Y-32508
X31500Y-32878
X31531Y-33339
X32250Y-31157
X33000Y-31157
X33748Y-40248
X33750Y-31157
X34500Y-31161
X35250Y-31157
X36000Y-31161
X37240Y-30850
X37268Y-24500
X37496Y-47429
X38252Y-47409
X39000Y-47429
X39750Y-47406
X40500Y-47406
X43622Y-46744
X44858Y-49972
X44862Y-49740
X44983Y-46962
X45079Y-46276
X45094Y-49972
X45098Y-49740
X45272Y-47575
X45303Y-31311
X45331Y-49972
X45335Y-49740
X45362Y-46673
X45433Y-31803
X45571Y-49976
X45575Y-49744
X45579Y-45815
X45807Y-49976
X45811Y-49744
X45894Y-48181
X45917Y-46041
X48283Y-32051
X48315Y-31543
X48366Y-32480
X48382Y-33343
X48563Y-32870
X49500Y-31157
X50250Y-31161
X51000Y-31157
X51750Y-31157
X52500Y-31157
X53250Y-31157
X54000Y-47409
X54146Y-24500
X54750Y-47409
X55500Y-47409
X56250Y-47409
X57000Y-47409
X57750Y-47417
X60295Y-46445
X60654Y-46689
X61697Y-49980
X61701Y-49748
X61924Y-46163
X61933Y-49980
X61937Y-49748
X61947Y-47055
X61970Y-46604
X62150Y-31272
X62169Y-49980
X62173Y-49748
X62409Y-49984
X62413Y-49752
X62471Y-47579
X62476Y-31614
X62476Y-45654
X62646Y-49984
X62650Y-49752
X62949Y-45862
X62965Y-47638
X65225Y-31945
X65240Y-31496
X65244Y-32398
X65480Y-32748
X65665Y-33161
X66500Y-31154
X67250Y-31157
X68000Y-31157
X68750Y-31157
X69500Y-31157
X70250Y-31157
X70750Y-47406
X70933Y-24858
X70937Y-24358
X70937Y-24608
X70941Y-24108
X70945Y-23858
X71169Y-24858
X71173Y-24358
X71173Y-24608
X71177Y-24108
X71181Y-23858
X71500Y-47409
X72250Y-47409
X73000Y-47409
X73500Y-32598
X73500Y-32835
X73750Y-32602
X73750Y-32839
X73750Y-47409
X74000Y-32602
X74000Y-32839
X74250Y-32606
X74250Y-32843
X74500Y-32610
X74500Y-32846
X74500Y-47394
X75402Y-34913
X75402Y-35150
X75652Y-34917
X75652Y-35154
X75902Y-34917
X75902Y-35154
X76152Y-34921
X76152Y-35157
X76402Y-34925
X76402Y-35161
X77000Y-35657
X77004Y-46453
X77094Y-42965
X77449Y-46531
X77750Y-35657
X77848Y-42961
X78500Y-35657
X78624Y-42939
X78807Y-31366
X78874Y-31906
X78945Y-47035
X78965Y-46134
X78965Y-46602
X79039Y-49953
X79043Y-49720
X79250Y-35657
X79276Y-49953
X79280Y-49720
X79283Y-32382
X79283Y-47614
X79393Y-42920
X79512Y-49953
X79516Y-49720
X79606Y-32051
X79610Y-32736
X79618Y-33228
X79618Y-45787
X79705Y-44673
X79720Y-28862
X79752Y-49957
X79756Y-49724
X79917Y-33575
X79988Y-49957
X79992Y-49724
X79996Y-48177
X80000Y-35657
X80047Y-45783
X80098Y-42961
X80433Y-45157
X80750Y-35673
X80848Y-42965
X82248Y-45075
X82796Y-46322
X82878Y-45008
X82961Y-30965
X83126Y-46654
X83256Y-33972
X83508Y-35354
X83610Y-46740
X83650Y-33705
X83657Y-37750
X83661Y-38500
X83661Y-39250
X83661Y-40000
X83665Y-40750
X83846Y-48500
X83961Y-44323
X84012Y-47000
X84024Y-33965
X84287Y-44004
X84748Y-33071
X84754Y-33571
X85232Y-41083
X85276Y-31020
X85717Y-44634
X85756Y-31035
X86189Y-33398
X88750Y-26500
X88750Y-27500
T2
X20102Y-37000
X20102Y-43000
X21102Y-37000
X21102Y-43000
X22102Y-37000
X22102Y-43000
X23102Y-37000
X23102Y-43000
X24102Y-37000
X24102Y-43000
X25102Y-37000
X25102Y-43000
X26102Y-37000
X26102Y-43000
X27102Y-37000
X27102Y-43000
X28102Y-37000
X28102Y-43000
X29102Y-37000
X29102Y-43000
X30102Y-37000
X30102Y-43000
X31102Y-37000
X31102Y-43000
X32102Y-37000
X32102Y-43000
X33102Y-37000
X33102Y-43000
X34102Y-37000
X34102Y-43000
T3
X25000Y-55500
X25000Y-56500
X29000Y-55500
X29000Y-56500
X31000Y-24500
X31000Y-25500
X21000Y-24500
X21000Y-25500
X70000Y-53500
X70000Y-54500
X92500Y-43500
X93500Y-43500
X53000Y-53500
X53000Y-54500
X28000Y-22500
X28000Y-23500
X57000Y-55500
X57000Y-56500
X45000Y-22500
X45000Y-23500
X74000Y-55500
X74000Y-56500
X49002Y-53500
X49002Y-54500
X50000Y-24500
X50000Y-25500
X55000Y-55500
X55000Y-56500
X90500Y-42500
X91500Y-42500
X57000Y-24500
X57000Y-25500
X39008Y-53500
X39008Y-54500
X66000Y-22500
X66000Y-23500
X32000Y-53500
X32000Y-54500
X82000Y-24500
X82000Y-25500
X27000Y-55500
X27000Y-56500
X86000Y-24500
X86000Y-25500
X72000Y-24500
X72000Y-25500
X92500Y-34500
X93500Y-34500
X90500Y-25500
X91500Y-25500
X81000Y-22500
X81000Y-23500
X34000Y-22500
X34000Y-23500
X80000Y-55500
X80000Y-56500
X92500Y-41500
X93500Y-41500
X30000Y-22500
X30000Y-23500
X64000Y-53500
X64000Y-54500
X90500Y-44500
X91500Y-44500
X22000Y-22500
X22000Y-23500
X87000Y-53500
X87000Y-54500
X92500Y-47500
X93500Y-47500
X44000Y-24500
X44000Y-25500
X60000Y-53500
X60000Y-54500
X26000Y-22500
X26000Y-23500
X61000Y-55500
X61000Y-56500
X39000Y-22500
X39000Y-23500
X51000Y-22500
X51000Y-23500
X68000Y-53500
X68000Y-54500
X58000Y-22500
X58000Y-23500
X38000Y-55500
X38000Y-56500
X67000Y-24500
X67000Y-25500
X83000Y-22500
X83000Y-23500
X90500Y-35500
X91500Y-35500
X73000Y-22500
X73000Y-23500
X23000Y-55500
X23000Y-56500
X42000Y-24500
X42000Y-25500
X90500Y-52500
X91500Y-52500
X82000Y-55500
X82000Y-56500
X67000Y-55500
X67000Y-56500
X92500Y-45500
X93500Y-45500
X35000Y-24500
X35000Y-25500
X85000Y-53500
X85000Y-54500
X90500Y-48500
X91500Y-48500
X41000Y-22500
X41000Y-23500
X65000Y-55500
X65000Y-56500
X29000Y-24500
X29000Y-25500
X62000Y-53500
X62000Y-54500
X63000Y-24500
X63000Y-25500
X77000Y-53500
X77000Y-54500
X52000Y-24500
X52000Y-25500
X52000Y-55500
X52000Y-56500
X92500Y-51500
X93500Y-51500
X60000Y-22500
X60000Y-23500
X68000Y-22500
X68000Y-23500
X85000Y-22500
X85000Y-23500
X87000Y-22500
X87000Y-23500
X74000Y-24500
X74000Y-25500
X90500Y-37500
X91500Y-37500
X92500Y-26500
X93500Y-26500
X78000Y-24500
X78000Y-25500
X92500Y-53500
X93500Y-53500
X56000Y-53500
X56000Y-54500
X90500Y-46500
X91500Y-46500
X40000Y-24500
X40000Y-25500
X84000Y-55500
X84000Y-56500
X92500Y-49500
X93500Y-49500
X23000Y-24500
X23000Y-25500
X76000Y-55500
X76000Y-56500
X48000Y-55500
X48000Y-56500
X47000Y-22500
X47000Y-23500
X75000Y-53500
X75000Y-54500
X53000Y-22500
X53000Y-23500
X43006Y-53500
X43006Y-54500
X61000Y-24500
X61000Y-25500
X69000Y-24500
X69000Y-25500
X90500Y-23500
X91500Y-23500
X84000Y-24500
X84000Y-25500
X92500Y-24500
X93500Y-24500
X92500Y-38500
X93500Y-38500
X90500Y-33500
X91500Y-33500
X26000Y-53500
X26000Y-54500
X86000Y-55500
X86000Y-56500
X51001Y-53500
X51001Y-54500
X46000Y-24500
X46000Y-25500
X66000Y-53500
X66000Y-54500
X90500Y-50500
X91500Y-50500
X24000Y-22500
X24000Y-23500
X59000Y-55500
X59000Y-56500
X44000Y-55500
X44000Y-56500
X48000Y-24500
X48000Y-25500
X69000Y-55500
X69000Y-56500
X55000Y-24500
X55000Y-25500
X42000Y-55500
X42000Y-56500
X62000Y-22500
X62000Y-23500
X76000Y-24500
X76000Y-25500
X92500Y-30500
X93500Y-30500
X31000Y-55500
X31000Y-56500
X92500Y-32500
X93500Y-32500
X75000Y-22500
X75000Y-23500
X30000Y-53500
X30000Y-54500
X33000Y-24500
X33000Y-25500
X90500Y-54500
X91500Y-54500
X83000Y-53500
X83000Y-54500
X46000Y-55500
X46000Y-56500
X43000Y-22500
X43000Y-23500
X81000Y-53500
X81000Y-54500
X27000Y-24500
X27000Y-25500
X47003Y-53500
X47003Y-54500
X38000Y-24500
X38000Y-25500
X72000Y-55500
X72000Y-56500
X49000Y-22500
X49000Y-23500
X58000Y-53500
X58000Y-54500
X59000Y-24500
X59000Y-25500
X41007Y-53500
X41007Y-54500
X64000Y-22500
X64000Y-23500
X33000Y-55500
X33000Y-56500
X79000Y-22500
X79000Y-23500
X35000Y-55500
X35000Y-56500
X90500Y-31500
X91500Y-31500
X22000Y-53500
X22000Y-54500
X90500Y-27500
X91500Y-27500
X21000Y-55500
X21000Y-56500
X90500Y-29500
X91500Y-29500
X77000Y-22500
X77000Y-23500
X28000Y-53500
X28000Y-54500
X34000Y-53500
X34000Y-54500
X32000Y-22500
X32000Y-23500
X92500Y-55500
X93500Y-55500
X73000Y-53500
X73000Y-54500
X90500Y-40500
X91500Y-40500
X63000Y-55500
X63000Y-56500
X25000Y-24500
X25000Y-25500
X50000Y-55500
X50000Y-56500
X36000Y-22500
X36000Y-23500
X45004Y-53500
X45004Y-54500
X79000Y-53500
X79000Y-54500
X70000Y-22500
X70000Y-23500
X78000Y-55500
X78000Y-56500
X56000Y-22500
X56000Y-23500
X40000Y-55500
X40000Y-56500
X65000Y-24500
X65000Y-25500
X80000Y-24500
X80000Y-25500
X36000Y-53500
X36000Y-54500
X92500Y-36500
X93500Y-36500
X24000Y-53500
X24000Y-54500
X92500Y-28500
X93500Y-28500
T4
X55000Y-21000
X56000Y-21000
X57000Y-21000
X58000Y-21000
X59000Y-21000
X60000Y-21000
X61000Y-21000
X62000Y-21000
X63000Y-21000
X64000Y-21000
X65000Y-21000
X66000Y-21000
X67000Y-21000
X68000Y-21000
X69000Y-21000
X70000Y-21000
X72000Y-21000
X73000Y-21000
X74000Y-21000
X75000Y-21000
X76000Y-21000
X77000Y-21000
X78000Y-21000
X79000Y-21000
X80000Y-21000
X81000Y-21000
X82000Y-21000
X83000Y-21000
X84000Y-21000
X85000Y-21000
X86000Y-21000
X87000Y-21000
X21000Y-21000
X22000Y-21000
X23000Y-21000
X24000Y-21000
X25000Y-21000
X26000Y-21000
X27000Y-21000
X28000Y-21000
X29000Y-21000
X30000Y-21000
X31000Y-21000
X32000Y-21000
X33000Y-21000
X34000Y-21000
X35000Y-21000
X36000Y-21000
X72000Y-58000
X73000Y-58000
X74000Y-58000
X75000Y-58000
X76000Y-58000
X77000Y-58000
X78000Y-58000
X79000Y-58000
X80000Y-58000
X81000Y-58000
X82000Y-58000
X83000Y-58000
X84000Y-58000
X85000Y-58000
X86000Y-58000
X87000Y-58000
X95000Y-23500
X95000Y-24500
X95000Y-25500
X95000Y-26500
X95000Y-27500
X95000Y-28500
X95000Y-29500
X95000Y-30500
X95000Y-31500
X95000Y-32500
X95000Y-33500
X95000Y-34500
X95000Y-35500
X95000Y-36500
X95000Y-37500
X95000Y-38500
X21000Y-58000
X22000Y-58000
X23000Y-58000
X24000Y-58000
X25000Y-58000
X26000Y-58000
X27000Y-58000
X28000Y-58000
X29000Y-58000
X30000Y-58000
X31000Y-58000
X32000Y-58000
X33000Y-58000
X34000Y-58000
X35000Y-58000
X36000Y-58000
X55000Y-58000
X56000Y-58000
X57000Y-58000
X58000Y-58000
X59000Y-58000
X60000Y-58000
X61000Y-58000
X62000Y-58000
X63000Y-58000
X64000Y-58000
X65000Y-58000
X66000Y-58000
X67000Y-58000
X68000Y-58000
X69000Y-58000
X70000Y-58000
X38000Y-58000
X39000Y-58000
X40000Y-58000
X41000Y-58000
X42000Y-58000
X43000Y-58000
X44000Y-58000
X45000Y-58000
X46000Y-58000
X47000Y-58000
X48000Y-58000
X49000Y-58000
X50000Y-58000
X51000Y-58000
X52000Y-58000
X53000Y-58000
X38000Y-21000
X39000Y-21000
X40000Y-21000
X41000Y-21000
X42000Y-21000
X43000Y-21000
X44000Y-21000
X45000Y-21000
X46000Y-21000
X47000Y-21000
X48000Y-21000
X49000Y-21000
X50000Y-21000
X51000Y-21000
X52000Y-21000
X53000Y-21000
X95000Y-40500
X95000Y-41500
X95000Y-42500
X95000Y-43500
X95000Y-44500
X95000Y-45500
X95000Y-46500
X95000Y-47500
X95000Y-48500
X95000Y-49500
X95000Y-50500
X95000Y-51500
X95000Y-52500
X95000Y-53500
X95000Y-54500
X95000Y-55500
T5
X20500Y-30500
X20500Y-33453
T6
X19500Y-45000
X19500Y-47000
X19500Y-49000
T7
X44500Y-37634
X44500Y-41571
X57750Y-37563
X57750Y-41500
X71000Y-37563
X71000Y-41500
T8
X19000Y-21500
X94500Y-21500
X19000Y-57500
X94500Y-57500
T0
M30
