G04 #@! TF.GenerationSoftware,KiCad,Pcbnew,(5.0.0)*
G04 #@! TF.CreationDate,2019-05-11T02:31:08+07:00*
G04 #@! TF.ProjectId,Dmx512,446D783531322E6B696361645F706362,rev?*
G04 #@! TF.SameCoordinates,Original*
G04 #@! TF.FileFunction,Soldermask,Bot*
G04 #@! TF.FilePolarity,Negative*
%FSLAX46Y46*%
G04 Gerber Fmt 4.6, Leading zero omitted, Abs format (unit mm)*
G04 Created by KiCad (PCBNEW (5.0.0)) date 05/11/19 02:31:08*
%MOMM*%
%LPD*%
G01*
G04 APERTURE LIST*
%ADD10C,5.400000*%
%ADD11C,2.200000*%
%ADD12R,2.200000X2.200000*%
%ADD13R,2.000000X2.000000*%
%ADD14O,2.000000X2.000000*%
%ADD15O,2.100000X2.100000*%
%ADD16R,2.100000X2.100000*%
%ADD17R,4.400000X4.400000*%
%ADD18C,4.400000*%
%ADD19R,2.900000X2.900000*%
%ADD20C,2.900000*%
%ADD21R,3.400000X3.400000*%
%ADD22C,3.400000*%
G04 APERTURE END LIST*
D10*
G04 #@! TO.C,*
X48260000Y-54610000D03*
G04 #@! TD*
D11*
G04 #@! TO.C,D106*
X198120000Y-62230000D03*
D12*
X198120000Y-64770000D03*
G04 #@! TD*
D10*
G04 #@! TO.C,*
X240030000Y-54610000D03*
G04 #@! TD*
D11*
G04 #@! TO.C,D7*
X68580000Y-143510000D03*
D12*
X68580000Y-140970000D03*
G04 #@! TD*
D11*
G04 #@! TO.C,D1*
X53340000Y-143510000D03*
D12*
X53340000Y-140970000D03*
G04 #@! TD*
G04 #@! TO.C,D2*
X55880000Y-135890000D03*
D11*
X55880000Y-138430000D03*
G04 #@! TD*
G04 #@! TO.C,D3*
X58420000Y-143510000D03*
D12*
X58420000Y-140970000D03*
G04 #@! TD*
G04 #@! TO.C,D4*
X60960000Y-135890000D03*
D11*
X60960000Y-138430000D03*
G04 #@! TD*
G04 #@! TO.C,D5*
X63500000Y-143510000D03*
D12*
X63500000Y-140970000D03*
G04 #@! TD*
G04 #@! TO.C,D6*
X66040000Y-135890000D03*
D11*
X66040000Y-138430000D03*
G04 #@! TD*
D12*
G04 #@! TO.C,D8*
X71120000Y-135890000D03*
D11*
X71120000Y-138430000D03*
G04 #@! TD*
G04 #@! TO.C,D9*
X73660000Y-143510000D03*
D12*
X73660000Y-140970000D03*
G04 #@! TD*
G04 #@! TO.C,D10*
X76200000Y-135890000D03*
D11*
X76200000Y-138430000D03*
G04 #@! TD*
D12*
G04 #@! TO.C,D15*
X88900000Y-140970000D03*
D11*
X88900000Y-143510000D03*
G04 #@! TD*
G04 #@! TO.C,D14*
X86360000Y-138430000D03*
D12*
X86360000Y-135890000D03*
G04 #@! TD*
D11*
G04 #@! TO.C,D11*
X78740000Y-143510000D03*
D12*
X78740000Y-140970000D03*
G04 #@! TD*
D11*
G04 #@! TO.C,D12*
X81280000Y-138430000D03*
D12*
X81280000Y-135890000D03*
G04 #@! TD*
D11*
G04 #@! TO.C,D13*
X83820000Y-143510000D03*
D12*
X83820000Y-140970000D03*
G04 #@! TD*
G04 #@! TO.C,D16*
X91440000Y-135890000D03*
D11*
X91440000Y-138430000D03*
G04 #@! TD*
D13*
G04 #@! TO.C,A1*
X86620000Y-93980000D03*
D14*
X53600000Y-109220000D03*
X84080000Y-93980000D03*
X56140000Y-109220000D03*
X81540000Y-93980000D03*
X58680000Y-109220000D03*
X79000000Y-93980000D03*
X61220000Y-109220000D03*
X76460000Y-93980000D03*
X63760000Y-109220000D03*
X73920000Y-93980000D03*
X66300000Y-109220000D03*
X71380000Y-93980000D03*
X68840000Y-109220000D03*
X68840000Y-93980000D03*
X71380000Y-109220000D03*
X66300000Y-93980000D03*
X73920000Y-109220000D03*
X63760000Y-93980000D03*
X76460000Y-109220000D03*
X61220000Y-93980000D03*
X79000000Y-109220000D03*
X58680000Y-93980000D03*
X81540000Y-109220000D03*
X56140000Y-93980000D03*
X84080000Y-109220000D03*
X53600000Y-93980000D03*
X86620000Y-109220000D03*
X51060000Y-93980000D03*
X51060000Y-109220000D03*
G04 #@! TD*
D11*
G04 #@! TO.C,D17*
X96520000Y-143510000D03*
D12*
X96520000Y-140970000D03*
G04 #@! TD*
D11*
G04 #@! TO.C,D18*
X99080000Y-138430000D03*
D12*
X99080000Y-135890000D03*
G04 #@! TD*
D11*
G04 #@! TO.C,D19*
X101600000Y-143510000D03*
D12*
X101600000Y-140970000D03*
G04 #@! TD*
D11*
G04 #@! TO.C,D20*
X104157142Y-138430000D03*
D12*
X104157142Y-135890000D03*
G04 #@! TD*
G04 #@! TO.C,D21*
X106680000Y-140970000D03*
D11*
X106680000Y-143510000D03*
G04 #@! TD*
G04 #@! TO.C,D22*
X109234284Y-138430000D03*
D12*
X109234284Y-135890000D03*
G04 #@! TD*
D11*
G04 #@! TO.C,D23*
X111760000Y-143510000D03*
D12*
X111760000Y-140970000D03*
G04 #@! TD*
D11*
G04 #@! TO.C,D24*
X114311426Y-138430000D03*
D12*
X114311426Y-135890000D03*
G04 #@! TD*
G04 #@! TO.C,D25*
X116840000Y-140970000D03*
D11*
X116840000Y-143510000D03*
G04 #@! TD*
D12*
G04 #@! TO.C,D26*
X119388568Y-135890000D03*
D11*
X119388568Y-138430000D03*
G04 #@! TD*
D12*
G04 #@! TO.C,D27*
X121920000Y-140970000D03*
D11*
X121920000Y-143510000D03*
G04 #@! TD*
G04 #@! TO.C,D28*
X124465710Y-138430000D03*
D12*
X124465710Y-135890000D03*
G04 #@! TD*
D11*
G04 #@! TO.C,D29*
X127000000Y-143510000D03*
D12*
X127000000Y-140970000D03*
G04 #@! TD*
D11*
G04 #@! TO.C,D30*
X129542852Y-138430000D03*
D12*
X129542852Y-135890000D03*
G04 #@! TD*
G04 #@! TO.C,D31*
X132080000Y-140970000D03*
D11*
X132080000Y-143510000D03*
G04 #@! TD*
G04 #@! TO.C,D32*
X134620000Y-138430000D03*
D12*
X134620000Y-135890000D03*
G04 #@! TD*
G04 #@! TO.C,D33*
X139700000Y-140970000D03*
D11*
X139700000Y-143510000D03*
G04 #@! TD*
D12*
G04 #@! TO.C,D34*
X142240000Y-135890000D03*
D11*
X142240000Y-138430000D03*
G04 #@! TD*
D12*
G04 #@! TO.C,D35*
X144780000Y-140970000D03*
D11*
X144780000Y-143510000D03*
G04 #@! TD*
D12*
G04 #@! TO.C,D36*
X147320000Y-135890000D03*
D11*
X147320000Y-138430000D03*
G04 #@! TD*
G04 #@! TO.C,D37*
X149860000Y-143510000D03*
D12*
X149860000Y-140970000D03*
G04 #@! TD*
D11*
G04 #@! TO.C,D38*
X152400000Y-138430000D03*
D12*
X152400000Y-135890000D03*
G04 #@! TD*
D11*
G04 #@! TO.C,D39*
X154940000Y-143510000D03*
D12*
X154940000Y-140970000D03*
G04 #@! TD*
D11*
G04 #@! TO.C,D40*
X157480000Y-138430000D03*
D12*
X157480000Y-135890000D03*
G04 #@! TD*
D11*
G04 #@! TO.C,D41*
X160020000Y-143510000D03*
D12*
X160020000Y-140970000D03*
G04 #@! TD*
D11*
G04 #@! TO.C,D42*
X162560000Y-138430000D03*
D12*
X162560000Y-135890000D03*
G04 #@! TD*
D11*
G04 #@! TO.C,D43*
X165100000Y-143510000D03*
D12*
X165100000Y-140970000D03*
G04 #@! TD*
G04 #@! TO.C,D44*
X167640000Y-135890000D03*
D11*
X167640000Y-138430000D03*
G04 #@! TD*
G04 #@! TO.C,D45*
X170180000Y-143510000D03*
D12*
X170180000Y-140970000D03*
G04 #@! TD*
G04 #@! TO.C,D46*
X172720000Y-135890000D03*
D11*
X172720000Y-138430000D03*
G04 #@! TD*
D12*
G04 #@! TO.C,D47*
X175260000Y-140970000D03*
D11*
X175260000Y-143510000D03*
G04 #@! TD*
D12*
G04 #@! TO.C,D48*
X177800000Y-135890000D03*
D11*
X177800000Y-138430000D03*
G04 #@! TD*
D12*
G04 #@! TO.C,D49*
X182880000Y-140970000D03*
D11*
X182880000Y-143510000D03*
G04 #@! TD*
D12*
G04 #@! TO.C,D50*
X185420000Y-135890000D03*
D11*
X185420000Y-138430000D03*
G04 #@! TD*
D12*
G04 #@! TO.C,D51*
X187960000Y-140970000D03*
D11*
X187960000Y-143510000D03*
G04 #@! TD*
D12*
G04 #@! TO.C,D52*
X190500000Y-135890000D03*
D11*
X190500000Y-138430000D03*
G04 #@! TD*
G04 #@! TO.C,D53*
X193040000Y-143510000D03*
D12*
X193040000Y-140970000D03*
G04 #@! TD*
G04 #@! TO.C,D54*
X195580000Y-135890000D03*
D11*
X195580000Y-138430000D03*
G04 #@! TD*
G04 #@! TO.C,D55*
X198120000Y-143510000D03*
D12*
X198120000Y-140970000D03*
G04 #@! TD*
G04 #@! TO.C,D56*
X200660000Y-135890000D03*
D11*
X200660000Y-138430000D03*
G04 #@! TD*
G04 #@! TO.C,D57*
X203200000Y-143510000D03*
D12*
X203200000Y-140970000D03*
G04 #@! TD*
G04 #@! TO.C,D58*
X205740000Y-135890000D03*
D11*
X205740000Y-138430000D03*
G04 #@! TD*
G04 #@! TO.C,D59*
X208280000Y-143510000D03*
D12*
X208280000Y-140970000D03*
G04 #@! TD*
G04 #@! TO.C,D60*
X210820000Y-135890000D03*
D11*
X210820000Y-138430000D03*
G04 #@! TD*
D12*
G04 #@! TO.C,D61*
X213360000Y-140970000D03*
D11*
X213360000Y-143510000D03*
G04 #@! TD*
D12*
G04 #@! TO.C,D62*
X215900000Y-135890000D03*
D11*
X215900000Y-138430000D03*
G04 #@! TD*
D12*
G04 #@! TO.C,D63*
X218440000Y-140970000D03*
D11*
X218440000Y-143510000D03*
G04 #@! TD*
D12*
G04 #@! TO.C,D64*
X220980000Y-135890000D03*
D11*
X220980000Y-138430000D03*
G04 #@! TD*
D15*
G04 #@! TO.C,J3*
X91440000Y-147320000D03*
X88900000Y-147320000D03*
X86360000Y-147320000D03*
X83820000Y-147320000D03*
X81280000Y-147320000D03*
X78740000Y-147320000D03*
X76200000Y-147320000D03*
X73660000Y-147320000D03*
X71120000Y-147320000D03*
X68580000Y-147320000D03*
X66040000Y-147320000D03*
X63500000Y-147320000D03*
X60960000Y-147320000D03*
X58420000Y-147320000D03*
X55880000Y-147320000D03*
D16*
X53340000Y-147320000D03*
G04 #@! TD*
D15*
G04 #@! TO.C,J4*
X134620000Y-147320000D03*
X132080000Y-147320000D03*
X129540000Y-147320000D03*
X127000000Y-147320000D03*
X124460000Y-147320000D03*
X121920000Y-147320000D03*
X119380000Y-147320000D03*
X116840000Y-147320000D03*
X114300000Y-147320000D03*
X111760000Y-147320000D03*
X109220000Y-147320000D03*
X106680000Y-147320000D03*
X104140000Y-147320000D03*
X101600000Y-147320000D03*
X99060000Y-147320000D03*
D16*
X96520000Y-147320000D03*
G04 #@! TD*
G04 #@! TO.C,J5*
X139700000Y-147320000D03*
D15*
X142240000Y-147320000D03*
X144780000Y-147320000D03*
X147320000Y-147320000D03*
X149860000Y-147320000D03*
X152400000Y-147320000D03*
X154940000Y-147320000D03*
X157480000Y-147320000D03*
X160020000Y-147320000D03*
X162560000Y-147320000D03*
X165100000Y-147320000D03*
X167640000Y-147320000D03*
X170180000Y-147320000D03*
X172720000Y-147320000D03*
X175260000Y-147320000D03*
X177800000Y-147320000D03*
G04 #@! TD*
D16*
G04 #@! TO.C,J6*
X182880000Y-147320000D03*
D15*
X185420000Y-147320000D03*
X187960000Y-147320000D03*
X190500000Y-147320000D03*
X193040000Y-147320000D03*
X195580000Y-147320000D03*
X198120000Y-147320000D03*
X200660000Y-147320000D03*
X203200000Y-147320000D03*
X205740000Y-147320000D03*
X208280000Y-147320000D03*
X210820000Y-147320000D03*
X213360000Y-147320000D03*
X215900000Y-147320000D03*
X218440000Y-147320000D03*
X220980000Y-147320000D03*
G04 #@! TD*
D10*
G04 #@! TO.C,*
X48260000Y-146050000D03*
G04 #@! TD*
G04 #@! TO.C,*
X240030000Y-146050000D03*
G04 #@! TD*
D12*
G04 #@! TO.C,D65*
X234950000Y-140970000D03*
D11*
X237490000Y-140970000D03*
G04 #@! TD*
G04 #@! TO.C,D66*
X232410000Y-138430000D03*
D12*
X229870000Y-138430000D03*
G04 #@! TD*
G04 #@! TO.C,D67*
X234950000Y-135890000D03*
D11*
X237490000Y-135890000D03*
G04 #@! TD*
G04 #@! TO.C,D68*
X232410000Y-133350000D03*
D12*
X229870000Y-133350000D03*
G04 #@! TD*
G04 #@! TO.C,D69*
X234950000Y-130810000D03*
D11*
X237490000Y-130810000D03*
G04 #@! TD*
G04 #@! TO.C,D70*
X232410000Y-128270000D03*
D12*
X229870000Y-128270000D03*
G04 #@! TD*
G04 #@! TO.C,D71*
X234950000Y-125730000D03*
D11*
X237490000Y-125730000D03*
G04 #@! TD*
D12*
G04 #@! TO.C,D72*
X229870000Y-123190000D03*
D11*
X232410000Y-123190000D03*
G04 #@! TD*
G04 #@! TO.C,D73*
X237490000Y-120650000D03*
D12*
X234950000Y-120650000D03*
G04 #@! TD*
G04 #@! TO.C,D74*
X229870000Y-118110000D03*
D11*
X232410000Y-118110000D03*
G04 #@! TD*
G04 #@! TO.C,D75*
X237490000Y-115570000D03*
D12*
X234950000Y-115570000D03*
G04 #@! TD*
G04 #@! TO.C,D76*
X229870000Y-113030000D03*
D11*
X232410000Y-113030000D03*
G04 #@! TD*
G04 #@! TO.C,D77*
X237490000Y-110490000D03*
D12*
X234950000Y-110490000D03*
G04 #@! TD*
D11*
G04 #@! TO.C,D78*
X232410000Y-107950000D03*
D12*
X229870000Y-107950000D03*
G04 #@! TD*
D11*
G04 #@! TO.C,D79*
X237490000Y-105410000D03*
D12*
X234950000Y-105410000D03*
G04 #@! TD*
G04 #@! TO.C,D80*
X229870000Y-102870000D03*
D11*
X232410000Y-102870000D03*
G04 #@! TD*
D16*
G04 #@! TO.C,J7*
X241300000Y-140970000D03*
D15*
X241300000Y-138430000D03*
X241300000Y-135890000D03*
X241300000Y-133350000D03*
X241300000Y-130810000D03*
X241300000Y-128270000D03*
X241300000Y-125730000D03*
X241300000Y-123190000D03*
X241300000Y-120650000D03*
X241300000Y-118110000D03*
X241300000Y-115570000D03*
X241300000Y-113030000D03*
X241300000Y-110490000D03*
X241300000Y-107950000D03*
X241300000Y-105410000D03*
X241300000Y-102870000D03*
G04 #@! TD*
D11*
G04 #@! TO.C,D82*
X232410000Y-95250000D03*
D12*
X229870000Y-95250000D03*
G04 #@! TD*
D11*
G04 #@! TO.C,D83*
X237490000Y-92710000D03*
D12*
X234950000Y-92710000D03*
G04 #@! TD*
G04 #@! TO.C,D84*
X229870000Y-90170000D03*
D11*
X232410000Y-90170000D03*
G04 #@! TD*
G04 #@! TO.C,D85*
X237490000Y-87630000D03*
D12*
X234950000Y-87630000D03*
G04 #@! TD*
G04 #@! TO.C,D86*
X229870000Y-85090000D03*
D11*
X232410000Y-85090000D03*
G04 #@! TD*
G04 #@! TO.C,D87*
X237490000Y-82550000D03*
D12*
X234950000Y-82550000D03*
G04 #@! TD*
G04 #@! TO.C,D88*
X229870000Y-80010000D03*
D11*
X232410000Y-80010000D03*
G04 #@! TD*
G04 #@! TO.C,D89*
X237490000Y-77470000D03*
D12*
X234950000Y-77470000D03*
G04 #@! TD*
G04 #@! TO.C,D90*
X229870000Y-74930000D03*
D11*
X232410000Y-74930000D03*
G04 #@! TD*
G04 #@! TO.C,D91*
X237490000Y-72390000D03*
D12*
X234950000Y-72390000D03*
G04 #@! TD*
G04 #@! TO.C,D92*
X229870000Y-69850000D03*
D11*
X232410000Y-69850000D03*
G04 #@! TD*
G04 #@! TO.C,D93*
X237490000Y-67310000D03*
D12*
X234950000Y-67310000D03*
G04 #@! TD*
G04 #@! TO.C,D94*
X229870000Y-64770000D03*
D11*
X232410000Y-64770000D03*
G04 #@! TD*
G04 #@! TO.C,D95*
X237490000Y-62230000D03*
D12*
X234950000Y-62230000D03*
G04 #@! TD*
G04 #@! TO.C,D96*
X229870000Y-59690000D03*
D11*
X232410000Y-59690000D03*
G04 #@! TD*
G04 #@! TO.C,D97*
X220980000Y-57150000D03*
D12*
X220980000Y-59690000D03*
G04 #@! TD*
D11*
G04 #@! TO.C,D98*
X218440000Y-62230000D03*
D12*
X218440000Y-64770000D03*
G04 #@! TD*
D11*
G04 #@! TO.C,D99*
X215900000Y-57150000D03*
D12*
X215900000Y-59690000D03*
G04 #@! TD*
D11*
G04 #@! TO.C,D100*
X213360000Y-62230000D03*
D12*
X213360000Y-64770000D03*
G04 #@! TD*
D11*
G04 #@! TO.C,D101*
X210820000Y-57150000D03*
D12*
X210820000Y-59690000D03*
G04 #@! TD*
D11*
G04 #@! TO.C,D102*
X208280000Y-62230000D03*
D12*
X208280000Y-64770000D03*
G04 #@! TD*
D11*
G04 #@! TO.C,D103*
X205740000Y-57150000D03*
D12*
X205740000Y-59690000D03*
G04 #@! TD*
G04 #@! TO.C,D104*
X203200000Y-64770000D03*
D11*
X203200000Y-62230000D03*
G04 #@! TD*
G04 #@! TO.C,D105*
X200660000Y-57150000D03*
D12*
X200660000Y-59690000D03*
G04 #@! TD*
D11*
G04 #@! TO.C,D107*
X195580000Y-57150000D03*
D12*
X195580000Y-59690000D03*
G04 #@! TD*
G04 #@! TO.C,D108*
X193040000Y-64770000D03*
D11*
X193040000Y-62230000D03*
G04 #@! TD*
G04 #@! TO.C,D109*
X190500000Y-57150000D03*
D12*
X190500000Y-59690000D03*
G04 #@! TD*
G04 #@! TO.C,D113*
X177800000Y-59690000D03*
D11*
X177800000Y-57150000D03*
G04 #@! TD*
D12*
G04 #@! TO.C,D114*
X175260000Y-64770000D03*
D11*
X175260000Y-62230000D03*
G04 #@! TD*
D12*
G04 #@! TO.C,D115*
X172720000Y-59690000D03*
D11*
X172720000Y-57150000D03*
G04 #@! TD*
D12*
G04 #@! TO.C,D116*
X170180000Y-64770000D03*
D11*
X170180000Y-62230000D03*
G04 #@! TD*
G04 #@! TO.C,D117*
X167640000Y-57150000D03*
D12*
X167640000Y-59690000D03*
G04 #@! TD*
D11*
G04 #@! TO.C,D118*
X165100000Y-62230000D03*
D12*
X165100000Y-64770000D03*
G04 #@! TD*
D11*
G04 #@! TO.C,D119*
X162560000Y-57150000D03*
D12*
X162560000Y-59690000D03*
G04 #@! TD*
D11*
G04 #@! TO.C,D120*
X160020000Y-62230000D03*
D12*
X160020000Y-64770000D03*
G04 #@! TD*
G04 #@! TO.C,D121*
X157480000Y-59690000D03*
D11*
X157480000Y-57150000D03*
G04 #@! TD*
D12*
G04 #@! TO.C,D122*
X154940000Y-64770000D03*
D11*
X154940000Y-62230000D03*
G04 #@! TD*
G04 #@! TO.C,D123*
X152400000Y-57150000D03*
D12*
X152400000Y-59690000D03*
G04 #@! TD*
G04 #@! TO.C,D124*
X149860000Y-64770000D03*
D11*
X149860000Y-62230000D03*
G04 #@! TD*
D12*
G04 #@! TO.C,D125*
X147320000Y-59690000D03*
D11*
X147320000Y-57150000D03*
G04 #@! TD*
G04 #@! TO.C,D126*
X144780000Y-62230000D03*
D12*
X144780000Y-64770000D03*
G04 #@! TD*
G04 #@! TO.C,D127*
X142240000Y-59690000D03*
D11*
X142240000Y-57150000D03*
G04 #@! TD*
G04 #@! TO.C,D128*
X139700000Y-62230000D03*
D12*
X139700000Y-64770000D03*
G04 #@! TD*
D11*
G04 #@! TO.C,D129*
X134620000Y-57150000D03*
D12*
X134620000Y-59690000D03*
G04 #@! TD*
G04 #@! TO.C,D130*
X132080000Y-64770000D03*
D11*
X132080000Y-62230000D03*
G04 #@! TD*
D12*
G04 #@! TO.C,D131*
X129540000Y-59690000D03*
D11*
X129540000Y-57150000D03*
G04 #@! TD*
D12*
G04 #@! TO.C,D132*
X127000000Y-64770000D03*
D11*
X127000000Y-62230000D03*
G04 #@! TD*
G04 #@! TO.C,D133*
X124460000Y-57150000D03*
D12*
X124460000Y-59690000D03*
G04 #@! TD*
G04 #@! TO.C,D134*
X121920000Y-64770000D03*
D11*
X121920000Y-62230000D03*
G04 #@! TD*
D12*
G04 #@! TO.C,D135*
X119380000Y-59690000D03*
D11*
X119380000Y-57150000D03*
G04 #@! TD*
G04 #@! TO.C,D136*
X116840000Y-62230000D03*
D12*
X116840000Y-64770000D03*
G04 #@! TD*
G04 #@! TO.C,D137*
X114300000Y-59690000D03*
D11*
X114300000Y-57150000D03*
G04 #@! TD*
G04 #@! TO.C,D138*
X111760000Y-62230000D03*
D12*
X111760000Y-64770000D03*
G04 #@! TD*
G04 #@! TO.C,D139*
X109220000Y-59690000D03*
D11*
X109220000Y-57150000D03*
G04 #@! TD*
D12*
G04 #@! TO.C,D140*
X106680000Y-64770000D03*
D11*
X106680000Y-62230000D03*
G04 #@! TD*
G04 #@! TO.C,D141*
X104140000Y-57150000D03*
D12*
X104140000Y-59690000D03*
G04 #@! TD*
G04 #@! TO.C,D142*
X101600000Y-64770000D03*
D11*
X101600000Y-62230000D03*
G04 #@! TD*
G04 #@! TO.C,D143*
X99060000Y-57150000D03*
D12*
X99060000Y-59690000D03*
G04 #@! TD*
G04 #@! TO.C,D144*
X96520000Y-64770000D03*
D11*
X96520000Y-62230000D03*
G04 #@! TD*
G04 #@! TO.C,D145*
X91440000Y-57150000D03*
D12*
X91440000Y-59690000D03*
G04 #@! TD*
G04 #@! TO.C,D146*
X88900000Y-64770000D03*
D11*
X88900000Y-62230000D03*
G04 #@! TD*
G04 #@! TO.C,D147*
X86360000Y-57150000D03*
D12*
X86360000Y-59690000D03*
G04 #@! TD*
G04 #@! TO.C,D148*
X83820000Y-64770000D03*
D11*
X83820000Y-62230000D03*
G04 #@! TD*
G04 #@! TO.C,D149*
X81280000Y-57150000D03*
D12*
X81280000Y-59690000D03*
G04 #@! TD*
G04 #@! TO.C,D150*
X78740000Y-64770000D03*
D11*
X78740000Y-62230000D03*
G04 #@! TD*
G04 #@! TO.C,D151*
X76200000Y-57150000D03*
D12*
X76200000Y-59690000D03*
G04 #@! TD*
G04 #@! TO.C,D152*
X73660000Y-64770000D03*
D11*
X73660000Y-62230000D03*
G04 #@! TD*
G04 #@! TO.C,D153*
X71120000Y-57150000D03*
D12*
X71120000Y-59690000D03*
G04 #@! TD*
G04 #@! TO.C,D154*
X68580000Y-64770000D03*
D11*
X68580000Y-62230000D03*
G04 #@! TD*
G04 #@! TO.C,D155*
X66040000Y-57150000D03*
D12*
X66040000Y-59690000D03*
G04 #@! TD*
G04 #@! TO.C,D156*
X63500000Y-64770000D03*
D11*
X63500000Y-62230000D03*
G04 #@! TD*
G04 #@! TO.C,D157*
X60960000Y-57150000D03*
D12*
X60960000Y-59690000D03*
G04 #@! TD*
G04 #@! TO.C,D158*
X58420000Y-64770000D03*
D11*
X58420000Y-62230000D03*
G04 #@! TD*
G04 #@! TO.C,D159*
X55880000Y-57150000D03*
D12*
X55880000Y-59690000D03*
G04 #@! TD*
G04 #@! TO.C,D160*
X53340000Y-64770000D03*
D11*
X53340000Y-62230000D03*
G04 #@! TD*
D16*
G04 #@! TO.C,J8*
X241300000Y-97790000D03*
D15*
X241300000Y-95250000D03*
X241300000Y-92710000D03*
X241300000Y-90170000D03*
X241300000Y-87630000D03*
X241300000Y-85090000D03*
X241300000Y-82550000D03*
X241300000Y-80010000D03*
X241300000Y-77470000D03*
X241300000Y-74930000D03*
X241300000Y-72390000D03*
X241300000Y-69850000D03*
X241300000Y-67310000D03*
X241300000Y-64770000D03*
X241300000Y-62230000D03*
X241300000Y-59690000D03*
G04 #@! TD*
G04 #@! TO.C,J9*
X182880000Y-53340000D03*
X185420000Y-53340000D03*
X187960000Y-53340000D03*
X190500000Y-53340000D03*
X193040000Y-53340000D03*
X195580000Y-53340000D03*
X198120000Y-53340000D03*
X200660000Y-53340000D03*
X203200000Y-53340000D03*
X205740000Y-53340000D03*
X208280000Y-53340000D03*
X210820000Y-53340000D03*
X213360000Y-53340000D03*
X215900000Y-53340000D03*
X218440000Y-53340000D03*
D16*
X220980000Y-53340000D03*
G04 #@! TD*
G04 #@! TO.C,J10*
X177800000Y-53340000D03*
D15*
X175260000Y-53340000D03*
X172720000Y-53340000D03*
X170180000Y-53340000D03*
X167640000Y-53340000D03*
X165100000Y-53340000D03*
X162560000Y-53340000D03*
X160020000Y-53340000D03*
X157480000Y-53340000D03*
X154940000Y-53340000D03*
X152400000Y-53340000D03*
X149860000Y-53340000D03*
X147320000Y-53340000D03*
X144780000Y-53340000D03*
X142240000Y-53340000D03*
X139700000Y-53340000D03*
G04 #@! TD*
D16*
G04 #@! TO.C,J11*
X134620000Y-53340000D03*
D15*
X132080000Y-53340000D03*
X129540000Y-53340000D03*
X127000000Y-53340000D03*
X124460000Y-53340000D03*
X121920000Y-53340000D03*
X119380000Y-53340000D03*
X116840000Y-53340000D03*
X114300000Y-53340000D03*
X111760000Y-53340000D03*
X109220000Y-53340000D03*
X106680000Y-53340000D03*
X104140000Y-53340000D03*
X101600000Y-53340000D03*
X99060000Y-53340000D03*
X96520000Y-53340000D03*
G04 #@! TD*
G04 #@! TO.C,J12*
X53340000Y-53340000D03*
X55880000Y-53340000D03*
X58420000Y-53340000D03*
X60960000Y-53340000D03*
X63500000Y-53340000D03*
X66040000Y-53340000D03*
X68580000Y-53340000D03*
X71120000Y-53340000D03*
X73660000Y-53340000D03*
X76200000Y-53340000D03*
X78740000Y-53340000D03*
X81280000Y-53340000D03*
X83820000Y-53340000D03*
X86360000Y-53340000D03*
X88900000Y-53340000D03*
D16*
X91440000Y-53340000D03*
G04 #@! TD*
D17*
G04 #@! TO.C,C11*
X180340000Y-105410000D03*
D18*
X180340000Y-95410000D03*
G04 #@! TD*
G04 #@! TO.C,C12*
X113030000Y-95590000D03*
D17*
X113030000Y-105590000D03*
G04 #@! TD*
D12*
G04 #@! TO.C,D81*
X234950000Y-97790000D03*
D11*
X237490000Y-97790000D03*
G04 #@! TD*
G04 #@! TO.C,D110*
X187960000Y-62230000D03*
D12*
X187960000Y-64770000D03*
G04 #@! TD*
G04 #@! TO.C,D111*
X185420000Y-59690000D03*
D11*
X185420000Y-57150000D03*
G04 #@! TD*
G04 #@! TO.C,D112*
X182880000Y-62230000D03*
D12*
X182880000Y-64770000D03*
G04 #@! TD*
D19*
G04 #@! TO.C,J13*
X52070000Y-77470000D03*
D20*
X52070000Y-84970000D03*
G04 #@! TD*
D17*
G04 #@! TO.C,C13*
X146685000Y-105410000D03*
D18*
X146685000Y-95410000D03*
G04 #@! TD*
D21*
G04 #@! TO.C,J1*
X49530000Y-124460000D03*
D22*
X49530000Y-119380000D03*
X49530000Y-114300000D03*
G04 #@! TD*
M02*
